<svg xmlns="http://www.w3.org/2000/svg" version="1.1" xmlns:xlink="http://www.w3.org/1999/xlink" width="24" height="24"><svg xmlns="http://www.w3.org/2000/svg" width="24" height="24" viewBox="0 0 24 24" class="icon" role="img" aria-hidden="true">
  <path fill="oklch(0.71 0.15 15)" d="m 4 11 a 1 1 0 0 0 4 0 V 2 A 2 2 0 0 0 4.586 0.586 l -3 3 a 2 2 2 0 0 2.414 3.146 V 11 z M 5 14.87 V 21 a 1 1 0 0 0 6 0 v -7 h 6 v 7 a 1 1 0 0 0 6 0 v -18 a 1 1 0 0 0 -6 0 v 7 h -6 v -7 a 3 3 0 0 0 -1 -2.24 V 11 a 4 4 0 0 1 -5 3.87 Z"></path>
</svg><style>@media (prefers-color-scheme: light) { :root { filter: none; } }
@media (prefers-color-scheme: dark) { :root { filter: none; } }
</style></svg>